<?xml version="1.0" encoding="UTF-8"?>
<svg width="398.9" height="100.59" version="1.1" viewBox="0 0 105.54 26.614" xmlns="http://www.w3.org/2000/svg" xmlns:cc="http://creativecommons.org/ns#" xmlns:dc="http://purl.org/dc/elements/1.1/" xmlns:rdf="http://www.w3.org/1999/02/22-rdf-syntax-ns#">
 <metadata>
  <rdf:RDF>
   <cc:Work rdf:about="">
    <dc:format>image/svg+xml</dc:format>
    <dc:type rdf:resource="http://purl.org/dc/dcmitype/StillImage"/>
    <dc:title/>
   </cc:Work>
  </rdf:RDF>
 </metadata>
 <g transform="translate(-.14493 -4.9491)">
  <g>
   <path d="m2.7908 19.947c0.64189 0.70025 2.0618 1.381 3.8708 1.381 2.3147 0 4.0653-1.1865 4.0653-3.5207 0-1.6534-0.93366-2.8204-3.2678-4.0848-2.2953-1.2643-2.9177-1.8673-2.9177-2.9177 0-1.1087 0.7586-1.8479 2.4898-1.8479 1.0893 0 2.1007 0.42793 2.8982 1.1282l0.46683-1.2643c-0.70025-0.58354-1.9451-1.2254-3.3845-1.2254-2.6843 0-3.9097 1.6923-3.9097 3.3456 0 1.7312 1.0698 2.4314 3.6179 3.9097 1.809 1.0504 2.5287 1.7895 2.5287 2.976 0 1.1671-0.73915 2.1396-2.5481 2.1396-1.4783 0-2.5481-0.52518-3.4234-1.3421z" style="white-space:pre"/>
   <path d="m21.231 14.306c0-1.809-1.4005-2.9566-3.3456-2.9566h-3.4234v9.7257h1.3616v-3.6957h1.8868c2.5092 0 3.5207-1.6339 3.5207-3.0733zm-1.4394 0.01945c0 1.1865-0.77805 1.809-2.0229 1.809h-1.9451v-3.5401h1.984c1.1671 0 1.984 0.50573 1.984 1.7312z" style="white-space:pre"/>
   <path d="m30.762 11.349h-6.38v9.7257h6.5745v-1.2449h-5.213v-3.0928h4.4349v-1.2449h-4.4349v-2.8982h5.0184z" style="white-space:pre"/>
   <path d="m40.876 11.349h-6.38v9.7257h6.5745v-1.2449h-5.213v-3.0928h4.4349v-1.2449h-4.4349v-2.8982h5.0184z" style="white-space:pre"/>
   <path d="m52.372 12.166c-0.73915-0.52519-1.9062-1.0115-3.3262-1.0115-2.6648 0-5.174 1.9257-5.174 5.174 0 2.7232 2.1007 4.9406 5.1351 4.9406 1.3616 0 2.587-0.42793 3.579-1.1282l-0.54464-1.1671c-0.60299 0.48628-1.7506 1.0115-2.9955 1.0115-2.1785 0-3.7347-1.5172-3.7347-3.6957 0-2.7037 1.9257-3.8514 3.7541-3.8514 1.3421 0 2.3536 0.52518 2.8204 0.89476z" style="white-space:pre"/>
   <path d="m63.673 11.349h-1.3616v4.1431h-5.2519v-4.1431h-1.3616v9.7257h1.3616v-4.3376h5.2519v4.3376h1.3616z" style="white-space:pre"/>
   <path d="m68.925 11.349h-1.3616v9.7257h5.9716v-1.2449h-4.61z" style="white-space:pre"/>
   <path d="m82.891 11.349h-6.38v9.7257h6.5745v-1.2449h-5.213v-3.0928h4.4349v-1.2449h-4.4349v-2.8982h5.0184z" style="white-space:pre"/>
   <path d="m85.809 20.102c0.56409 0.58354 1.9646 1.1671 3.5596 1.1671 2.3536 0 3.7541-1.0115 3.7541-2.6648 0-1.3227-0.70025-2.198-2.9371-3.1122-1.9646-0.7975-2.5676-1.1671-2.5676-1.8673 0-0.62244 0.73915-1.1865 1.984-1.1865 1.0504 0 1.984 0.33067 2.7815 0.91421l0.48628-1.1282c-0.66134-0.54464-1.7701-1.0698-3.2873-1.0698-2.2174 0-3.3456 1.3032-3.3456 2.5676 0 1.2643 0.7586 1.8673 3.015 2.8399 1.6534 0.7197 2.4314 1.0893 2.4314 1.9451 0 0.7586-0.62244 1.4783-2.2953 1.4783-1.2643 0-2.2564-0.42793-3.0344-1.0504z" style="white-space:pre"/>
   <path d="m95.729 20.102c0.56409 0.58354 1.9646 1.1671 3.5596 1.1671 2.3536 0 3.7541-1.0115 3.7541-2.6648 0-1.3227-0.70025-2.198-2.9372-3.1122-1.9646-0.7975-2.5676-1.1671-2.5676-1.8673 0-0.62244 0.73915-1.1865 1.984-1.1865 1.0504 0 1.984 0.33067 2.7815 0.91421l0.48628-1.1282c-0.66135-0.54464-1.7701-1.0698-3.2873-1.0698-2.2174 0-3.3456 1.3032-3.3456 2.5676 0 1.2643 0.7586 1.8673 3.015 2.8399 1.6534 0.7197 2.4314 1.0893 2.4314 1.9451 0 0.7586-0.62244 1.4783-2.2953 1.4783-1.2643 0-2.2564-0.42793-3.0344-1.0504z" style="white-space:pre"/>
  </g>
  <rect x="8.9907" y="24.025" width="93.784" height=".8681" stroke-width=".3018"/>
  <rect x="2.8671" y="24.025" width="4.8927" height="4.8927" stroke-width=".30393"/>
 </g>
</svg>
